<svg width="28" height="28" viewBox="0 0 28 28" fill="none" xmlns="http://www.w3.org/2000/svg">
<g clip-path="url(#clip0_13_122)">
<path fill-rule="evenodd" clip-rule="evenodd" d="M19.7961 17.5L22.6846 20.3885C22.7211 20.4251 22.7568 20.4623 22.7914 20.5H26.5C27.3285 20.5 28 19.8284 28 19C28 18.1716 27.3285 17.5 26.5 17.5H19.7961ZM19.6278 8.5C19.2007 7.40358 18.6026 6.39266 17.8662 5.5H26.5C27.3285 5.5 28 6.17157 28 7C28 7.82843 27.3285 8.5 26.5 8.5H19.6278ZM20.3735 12.4867C20.3735 12.1542 20.3587 11.825 20.3298 11.5H26.5C27.3285 11.5 28 12.1716 28 13C28 13.8284 27.3285 14.5 26.5 14.5H20.1891C20.3103 13.8466 20.3735 13.1736 20.3735 12.4867Z" fill="#CCCCCC"/>
<path fill-rule="evenodd" clip-rule="evenodd" d="M3.8999 12.4867C3.8999 9.45649 6.35639 7 9.38663 7C12.4169 7 14.8734 9.45649 14.8734 12.4867C14.8734 15.517 12.4169 17.9735 9.38663 17.9735C6.35639 17.9735 3.8999 15.517 3.8999 12.4867ZM0.399902 12.4867C0.399902 7.52349 4.4234 3.5 9.38663 3.5C14.3499 3.5 18.3734 7.52349 18.3734 12.4867C18.3734 13.8372 18.0755 15.118 17.5419 16.2672C17.2159 16.9692 17.2875 17.8201 17.8348 18.3674L21.2702 21.8027C21.8872 22.4198 21.8872 23.4202 21.2702 24.0373C20.6531 24.6543 19.6527 24.6543 19.0356 24.0373L15.7116 20.7132C15.1412 20.1428 14.2457 20.0909 13.5301 20.4633C12.2903 21.1087 10.8811 21.4735 9.38663 21.4735C4.4234 21.4735 0.399902 17.45 0.399902 12.4867Z" fill="#CCCCCC"/>
</g>
<defs>
<clipPath id="clip0_13_122">
<rect width="28" height="28" fill="white"/>
</clipPath>
</defs>
</svg>
